<svg xmlns="http://www.w3.org/2000/svg" xmlns:xlink="http://www.w3.org/1999/xlink" width="500" zoomAndPan="magnify" viewBox="0 0 375 374.999991" height="500" preserveAspectRatio="xMidYMid meet" version="1.0"><defs><clipPath id="cf18541383"><path d="M 6.515625 263.652344 L 86.765625 263.652344 L 86.765625 360.402344 L 6.515625 360.402344 Z M 6.515625 263.652344 " clip-rule="nonzero"/></clipPath><clipPath id="e5eaad0dd5"><path d="M 97.203125 19.453125 L 115.953125 19.453125 L 115.953125 29.449219 L 97.203125 29.449219 Z M 97.203125 19.453125 " clip-rule="nonzero"/></clipPath></defs><g clip-path="url(#cf18541383)"><path fill="#ffffff" d="M 46.84375 263.652344 L 36.945312 300.074219 L 6.523438 306.484375 L 30.824219 323.578125 L 21.710938 360.15625 L 46.652344 327.160156 L 30.640625 343.78125 L 36.496094 320.277344 L 20.871094 309.289062 L 40.425781 305.171875 L 46.789062 281.753906 L 53.019531 302.722656 L 86.953125 290.847656 L 56.53125 296.269531 L 46.84375 263.652344 " fill-opacity="1" fill-rule="nonzero"/></g><g clip-path="url(#e5eaad0dd5)"><path fill="#e2ab23" d="M 117.910156 48.535156 C 116.710938 47.253906 111.734375 53.320312 111.042969 54.003906 C 106.394531 58.578125 99.714844 64.351562 92.742188 64.148438 C 86.019531 63.953125 83.21875 56.652344 82.628906 50.980469 C 82.308594 47.347656 82.605469 43.566406 83.902344 40.132812 C 84.253906 39.195312 83.445312 38.214844 82.503906 38.214844 C 80.773438 38.214844 79.957031 41.453125 79.4375 42.597656 C 77.160156 47.417969 75.300781 52.867188 71.363281 56.640625 C 64.636719 63.101562 59.46875 54.042969 58.191406 48.035156 C 56.960938 42.246094 56.925781 36.28125 56.773438 30.390625 C 56.710938 27.285156 56.796875 24.058594 56.214844 20.992188 C 55.660156 18.066406 53.167969 20.398438 53.027344 22.3125 C 52.195312 33.519531 51.390625 47.929688 45.378906 57.796875 C 41.761719 63.738281 36.246094 62.894531 32.207031 58.054688 C 27.496094 52.410156 26.773438 46.429688 25.113281 39.664062 C 24.34375 36.503906 22.320312 40.425781 22.5625 42.128906 C 23.101562 45.867188 23.601562 49.480469 23.539062 53.28125 C 23.433594 59.453125 22.289062 68.554688 14.621094 69.496094 C 7.875 70.039062 4.433594 64.347656 -0.898438 62.609375 C -0.785156 62.464844 -0.769531 62.445312 -0.851562 62.546875 C -2.539062 60.804688 -5.605469 58.117188 -7.625 55.910156 C -8.117188 55.449219 -10.820312 51.742188 -11.667969 54.472656 C -12.355469 56.648438 -6.207031 63.511719 -4.984375 65.441406 C -3.53125 67.730469 5.898438 85.847656 7.667969 84.890625 C 10.230469 83.527344 -0.574219 67.441406 -1.984375 65.203125 C 3.402344 69.691406 11.417969 74.878906 18.613281 71.433594 C 25.128906 68.3125 26.414062 60.046875 26.539062 53.585938 C 29.933594 60.144531 37.566406 69.152344 45.230469 62.378906 C 51.398438 56.925781 53.082031 47 54.3125 39.316406 C 54.679688 46.230469 55.160156 55.902344 61.386719 60.398438 C 69.640625 66.386719 76.5 56.257812 79.5625 49.738281 C 79.773438 56.410156 81.875 64.679688 88.789062 67.359375 C 96.980469 70.53125 105.285156 63.980469 110.742188 58.609375 C 107.992188 63.878906 105.136719 68.996094 102.773438 74.449219 C 101.785156 76.726562 100.792969 79.015625 99.601562 81.191406 C 97.691406 84.675781 97.628906 83.480469 94.316406 81.886719 C 81.644531 75.773438 66.832031 75.460938 53.085938 76.390625 C 40.019531 77.636719 23.625 74.699219 11.902344 81.863281 C 6.390625 85.226562 6.855469 96.945312 13.761719 91.878906 C 19.800781 87.613281 27.574219 86.5 34.785156 86.128906 C 49.027344 85.390625 64.585938 85.457031 78.773438 87 C 84.402344 87.613281 89.953125 89.574219 95.503906 90.136719 C 96.109375 90.320312 99.621094 91.566406 98.417969 89.285156 C 97.71875 88.011719 94.214844 87.574219 93.21875 87.289062 C 79.878906 83.179688 66.484375 84.121094 52.777344 83.691406 C 39.4375 83.273438 22.53125 81.558594 11.210938 90.210938 C 5.917969 79.84375 39.851562 79.890625 44.535156 79.828125 C 58.425781 79.628906 72.101562 78.277344 85.714844 81.96875 C 91.363281 83.5 97.695312 90.101562 101.359375 83.371094 C 104.078125 78.363281 105.429688 72.746094 107.890625 67.625 C 108.71875 66.066406 118.902344 49.605469 117.910156 48.535156 " fill-opacity="1" fill-rule="nonzero"/></g></svg>