<?xml version="1.0" standalone="no"?>
<!DOCTYPE svg PUBLIC "-//W3C//DTD SVG 20010904//EN"
 "http://www.w3.org/TR/2001/REC-SVG-20010904/DTD/svg10.dtd">
<svg version="1.0" xmlns="http://www.w3.org/2000/svg"
 width="320.000000pt" height="320.000000pt" viewBox="0 0 320.000000 320.000000"
 preserveAspectRatio="xMidYMid meet">

<g transform="translate(0.000000,320.000000) scale(0.100000,-0.100000)"
fill="#000000" stroke="none">
<path d="M600 3175 c121 -33 246 -80 307 -115 l52 -30 -15 -37 c-8 -21 -21
-51 -28 -68 -50 -112 -55 -201 -12 -230 26 -19 36 -19 36 1 0 16 2 16 46 -3 6
-2 19 3 28 12 10 10 25 15 37 12 12 -3 19 -3 16 0 -6 6 33 53 45 53 4 0 8 -10
8 -22 1 -22 2 -21 16 5 15 27 44 37 44 15 0 -6 8 -1 19 10 24 28 34 28 25 0
-6 -21 -5 -22 11 -8 15 12 18 12 26 -2 7 -13 16 -15 41 -8 40 12 46 7 54 -38
8 -51 26 -102 36 -102 4 0 7 3 7 8 -9 54 33 56 42 2 l6 -35 2 37 c0 20 -3 40
-9 43 -5 3 -10 16 -10 29 0 12 -5 27 -12 34 -6 6 -13 20 -15 29 -8 43 -10 63
-4 63 14 0 51 -55 51 -77 0 -12 5 -23 11 -23 5 0 7 -4 4 -10 -3 -5 -1 -10 5
-10 6 0 16 -11 22 -25 9 -19 14 -22 25 -14 10 9 13 7 13 -11 0 -14 5 -20 13
-17 7 3 13 -5 13 -20 3 -39 11 -38 57 4 63 58 111 83 307 161 96 38 247 102
335 142 200 90 311 120 449 120 153 0 269 -30 419 -106 37 -19 69 -34 72 -34
3 0 5 65 5 145 l0 145 -1342 -1 -1343 0 85 -24z"/>
<path d="M2463 2923 c-19 -7 45 -93 69 -93 13 0 18 -5 15 -14 -3 -7 0 -19 6
-26 9 -10 9 -14 0 -17 -7 -3 -13 -12 -13 -20 0 -10 6 -13 16 -9 9 3 23 6 32 6
13 0 12 3 -4 15 -19 14 -19 14 3 15 12 0 25 5 28 10 3 6 1 10 -4 10 -6 0 -11
5 -11 10 0 6 6 10 14 10 18 0 30 33 21 58 -8 27 -51 45 -76 31 -13 -6 -25 -7
-32 -1 -16 12 -49 20 -64 15z"/>
<path d="M2928 2803 c-10 -2 -18 -11 -18 -19 0 -12 4 -12 20 -4 11 6 20 15 20
20 0 6 -1 9 -2 9 -2 -1 -11 -3 -20 -6z"/>
<path d="M2975 2800 c3 -5 8 -10 11 -10 2 0 4 5 4 10 0 6 -5 10 -11 10 -5 0
-7 -4 -4 -10z"/>
<path d="M3005 2782 c-3 -3 -5 -14 -5 -24 0 -20 22 -20 69 -1 l25 10 -25 7
c-33 11 -58 14 -64 8z"/>
<path d="M2950 2770 c0 -5 7 -7 15 -4 8 4 15 8 15 10 0 2 -7 4 -15 4 -8 0 -15
-4 -15 -10z"/>
<path d="M3078 2739 c-21 -13 13 -20 47 -10 17 5 26 10 20 11 -35 6 -56 6 -67
-1z"/>
<path d="M2027 2733 c-4 -3 -7 -15 -7 -26 0 -20 -51 -77 -69 -77 -5 0 -14 -7
-22 -16 -11 -13 -9 -14 17 -9 16 4 42 16 57 27 16 11 34 17 42 15 7 -3 22 1
34 9 12 8 25 13 30 9 13 -7 43 24 35 37 -3 5 -17 7 -30 4 -17 -5 -27 -1 -36
14 -13 20 -38 26 -51 13z"/>
<path d="M1450 2690 c0 -5 5 -10 10 -10 6 0 10 5 10 10 0 6 -4 10 -10 10 -5 0
-10 -4 -10 -10z"/>
<path d="M2600 2641 c0 -13 -73 -24 -145 -23 -43 1 -55 -2 -45 -9 11 -8 5 -9
-22 -4 -22 3 -39 1 -43 -5 -4 -6 -13 -9 -21 -6 -8 3 -14 -1 -14 -8 0 -7 -7
-20 -16 -27 -14 -12 -14 -14 3 -21 13 -6 11 -7 -8 -3 -21 4 -28 0 -32 -15 -4
-14 0 -20 11 -20 10 0 13 -3 7 -8 -6 -4 -12 -22 -13 -39 -2 -28 1 -33 20 -33
13 0 47 9 76 20 29 11 63 20 77 20 14 0 25 5 25 10 0 6 10 10 23 10 20 0 102
17 189 38 46 12 98 35 98 44 0 3 -7 13 -15 22 -8 8 -15 20 -15 27 0 8 -10 9
-31 5 -26 -5 -30 -3 -25 10 4 11 1 14 -13 9 -10 -3 -30 -1 -45 4 -14 6 -26 7
-26 2z"/>
<path d="M3088 2606 c-67 -20 -65 -33 4 -40 34 -4 68 -12 75 -18 17 -14 33 -1
33 27 0 42 -41 53 -112 31z m87 -6 c3 -5 1 -10 -4 -10 -6 0 -11 5 -11 10 0 6
2 10 4 10 3 0 8 -4 11 -10z"/>
<path d="M2989 2593 c-13 -15 -12 -15 9 -4 23 12 28 21 13 21 -5 0 -15 -7 -22
-17z"/>
<path d="M2778 2583 c7 -3 16 -2 19 1 4 3 -2 6 -13 5 -11 0 -14 -3 -6 -6z"/>
<path d="M1466 2565 c-3 -8 -1 -15 4 -15 6 0 10 7 10 15 0 8 -2 15 -4 15 -2 0
-6 -7 -10 -15z"/>
<path d="M1496 2563 c-6 -14 -5 -15 5 -6 7 7 10 15 7 18 -3 3 -9 -2 -12 -12z"/>
<path d="M1820 2540 c-9 -6 -10 -10 -3 -10 6 0 15 5 18 10 8 12 4 12 -15 0z"/>
<path d="M2906 2506 c21 -15 30 -14 19 3 -3 6 -14 11 -23 11 -13 0 -13 -2 4
-14z"/>
<path d="M2960 2510 c0 -5 5 -10 10 -10 6 0 10 5 10 10 0 6 -4 10 -10 10 -5 0
-10 -4 -10 -10z"/>
<path d="M3040 2510 c0 -5 5 -10 10 -10 6 0 10 5 10 10 0 6 -4 10 -10 10 -5 0
-10 -4 -10 -10z"/>
<path d="M3108 2483 c7 -3 16 -2 19 1 4 3 -2 6 -13 5 -11 0 -14 -3 -6 -6z"/>
<path d="M3055 2470 c3 -5 11 -10 16 -10 6 0 7 5 4 10 -3 6 -11 10 -16 10 -6
0 -7 -4 -4 -10z"/>
<path d="M2067 2434 c-15 -15 -27 -31 -27 -35 0 -14 18 -11 23 4 3 6 6 4 6 -7
1 -17 4 -16 28 8 24 24 25 28 12 42 -14 13 -18 12 -42 -12z"/>
<path d="M2945 2450 c-3 -5 -1 -10 4 -10 6 0 11 5 11 10 0 6 -2 10 -4 10 -3 0
-8 -4 -11 -10z"/>
<path d="M2863 2435 c-3 -9 -3 -18 -1 -21 3 -3 8 4 11 16 6 23 -1 27 -10 5z"/>
<path d="M3020 2434 c-14 -16 -5 -34 18 -33 11 0 12 3 5 6 -24 9 -13 20 13 15
17 -3 25 -1 21 5 -11 17 -46 22 -57 7z"/>
<path d="M2890 2420 c0 -5 9 -10 21 -10 11 0 18 -4 14 -9 -3 -6 7 -9 22 -8 18
1 27 -3 26 -10 -2 -7 4 -13 12 -13 8 0 15 -9 15 -20 0 -14 7 -20 21 -20 18 0
19 3 9 15 -19 23 -7 33 25 19 17 -7 24 -13 18 -14 -20 0 -15 -20 5 -20 20 0
42 -18 42 -36 0 -6 -15 -16 -32 -21 l-33 -10 28 -8 c15 -4 27 -11 27 -15 0
-12 -62 7 -71 21 -5 8 -8 8 -14 -1 -4 -6 -14 -9 -22 -6 -9 4 -13 1 -10 -6 2
-7 14 -12 25 -11 16 2 26 -7 40 -36 11 -22 16 -45 12 -51 -12 -19 -95 -19 -95
0 0 8 -11 22 -23 31 -15 11 -20 19 -13 24 18 11 2 26 -22 20 -15 -4 -36 3 -60
19 -20 14 -37 21 -37 16 0 -5 9 -14 20 -20 23 -12 28 -35 6 -27 -11 4 -14 -2
-12 -29 2 -19 -1 -34 -6 -34 -6 0 -8 -7 -4 -15 3 -8 1 -15 -4 -15 -6 0 -10 5
-10 12 0 6 -3 8 -6 5 -4 -4 -2 -13 4 -20 14 -16 6 -28 -14 -20 -8 3 -14 0 -14
-6 0 -6 -14 -11 -31 -11 -26 0 -29 -3 -20 -14 9 -11 9 -17 -2 -27 -29 -30 -51
-73 -51 -103 -1 -24 -5 -30 -19 -28 -9 2 -17 -2 -17 -9 0 -7 -10 -9 -25 -7
-14 3 -25 1 -25 -4 0 -5 16 -8 36 -6 25 2 39 -2 45 -12 9 -17 22 -52 23 -62 1
-4 10 -14 21 -22 20 -16 20 -16 -2 -22 -12 -3 -24 -12 -27 -20 -6 -17 -52 -19
-62 -3 -3 6 -1 16 5 22 8 8 11 8 11 -1 0 -7 9 -12 20 -12 11 0 20 7 20 15 0 8
-6 12 -14 9 -8 -3 -17 -1 -20 5 -8 13 -46 -8 -46 -25 0 -8 -9 -10 -22 -6 -21
5 -22 4 -9 -11 8 -11 21 -15 33 -11 10 3 25 1 32 -5 16 -13 41 -10 75 8 21 11
26 10 44 -8 12 -12 16 -21 9 -21 -20 0 -13 -19 17 -46 16 -14 27 -32 25 -38
-3 -9 7 -13 30 -14 34 -1 76 -27 76 -45 0 -5 -9 -7 -19 -4 -14 3 -18 1 -14 -9
3 -8 9 -14 14 -14 5 0 9 -4 9 -10 0 -5 -7 -7 -15 -4 -12 5 -14 2 -8 -12 6 -17
5 -17 -10 -5 -9 7 -17 22 -17 32 0 11 -5 19 -11 19 -7 0 -9 -10 -5 -25 5 -18
2 -25 -9 -25 -8 0 -15 8 -15 18 -1 16 -1 16 -11 0 -13 -24 -24 -23 -37 5 -6
12 -11 16 -11 10 -1 -21 -21 -14 -21 7 0 12 -7 20 -16 20 -13 0 -14 -3 -5 -14
15 -17 1 -28 -19 -15 -21 13 -36 11 -22 -3 18 -18 14 -30 -7 -23 -23 7 -32
-19 -17 -52 8 -20 17 -23 70 -23 158 -1 256 -36 331 -117 16 -18 40 -33 52
-33 23 0 37 -13 26 -23 -3 -4 -14 -2 -24 3 -14 8 -18 6 -22 -13 l-4 -22 -2 23
c0 12 -6 22 -12 22 -6 0 -9 -7 -5 -15 6 -17 -11 -20 -33 -6 -9 6 -30 2 -58
-10 -27 -11 -68 -19 -102 -19 -57 0 -57 0 -81 43 -12 23 -29 49 -35 57 -7 8
-15 24 -18 35 -4 18 -5 17 -6 -3 -1 -19 -5 -22 -21 -17 -14 5 -20 2 -20 -9 0
-23 -8 -20 -40 14 -16 17 -38 30 -52 30 -20 -1 -18 -3 12 -17 19 -8 29 -17 23
-20 -7 -3 -13 -9 -13 -15 0 -6 7 -8 15 -4 8 3 21 -1 29 -9 8 -8 24 -15 35 -15
28 0 27 -13 -1 -25 -13 -6 -28 -20 -34 -33 -9 -19 -13 -20 -17 -8 -9 24 -27
19 -27 -6 0 -18 -2 -20 -9 -9 -5 8 -6 22 -2 30 5 9 6 22 3 29 -3 11 2 10 20
-2 22 -14 27 -14 37 -2 20 23 -49 29 -72 5 -9 -10 -16 -22 -15 -26 2 -5 -7 -9
-19 -11 -13 -2 -23 -8 -23 -14 0 -5 6 -8 14 -5 16 6 36 -11 36 -30 0 -7 -7
-13 -15 -13 -22 0 -18 -18 10 -46 30 -30 31 -38 5 -31 -10 3 -24 -1 -31 -9 -6
-8 -15 -11 -20 -8 -15 9 -10 24 7 24 8 0 12 5 9 10 -4 6 -10 8 -15 5 -5 -3
-11 -1 -15 5 -3 5 -12 10 -18 10 -8 0 -7 -4 2 -9 12 -7 12 -13 3 -24 -7 -7 -8
-17 -4 -22 4 -4 -6 -4 -23 0 -16 4 -42 7 -58 7 -22 1 -26 4 -22 19 5 14 2 17
-9 13 -10 -4 -18 0 -22 10 -3 9 -13 16 -21 16 -11 0 -8 -6 8 -20 13 -10 20
-19 14 -20 -5 0 -11 -12 -11 -28 -1 -15 1 -21 3 -14 4 10 8 8 18 -5 9 -12 10
-22 3 -30 -12 -15 -1 -36 15 -27 7 4 5 -1 -4 -11 -14 -15 -20 -15 -40 -4 -20
11 -21 14 -6 17 26 5 21 17 -20 38 -28 14 -39 27 -41 47 -2 15 -7 27 -12 27
-5 0 -17 3 -27 6 -15 6 -16 4 -5 -7 16 -18 15 -29 -3 -29 -8 0 -15 -4 -15 -9
0 -5 -10 -11 -22 -15 -15 -4 -19 -9 -11 -14 6 -4 15 -23 21 -42 5 -21 15 -34
23 -32 8 1 6 -4 -5 -13 -14 -11 -16 -15 -5 -15 11 0 11 -2 1 -9 -10 -6 -9 -11
4 -22 12 -9 15 -10 10 -1 -10 17 -1 15 15 -5 13 -15 10 -15 -33 -9 -25 4 -49
3 -52 -2 -3 -5 5 -8 17 -8 29 1 38 -50 10 -56 -22 -5 -64 9 -76 25 -6 8 -7 4
-4 -10 3 -13 1 -26 -4 -29 -5 -3 -9 -10 -9 -15 0 -6 5 -7 10 -4 13 8 13 4 -5
-38 -16 -38 -40 -53 -60 -37 -10 8 -15 8 -21 -1 -4 -8 -3 -9 4 -5 15 9 15 1 1
-25 -7 -14 -16 -18 -31 -13 -18 5 -20 3 -15 -15 3 -12 0 -21 -6 -21 -6 0 -2
-8 9 -19 10 -10 22 -17 26 -15 4 3 10 -1 14 -7 10 -17 -46 -2 -69 18 -9 9 -20
14 -23 10 -3 -3 -15 3 -27 13 -11 11 -23 17 -26 15 -3 -3 10 -19 27 -35 18
-16 32 -31 32 -34 0 -2 -21 -4 -46 -4 -26 0 -51 -5 -57 -11 -8 -8 -8 -11 1
-11 6 0 9 -6 6 -14 -3 -8 2 -16 13 -19 12 -3 8 -5 -10 -6 -23 -1 -26 -3 -15
-15 7 -8 16 -10 19 -4 3 5 12 1 20 -8 13 -16 9 -17 -44 -12 -53 4 -60 3 -67
-16 -4 -12 -5 -26 -3 -33 3 -8 -8 -11 -36 -10 -40 2 -58 -15 -28 -26 24 -10
-22 -7 -49 3 -17 7 -30 7 -38 0 -14 -11 -36 5 -36 26 0 6 -9 14 -20 17 -11 3
-21 13 -21 24 -1 10 -5 5 -9 -12 l-7 -30 -10 25 c-6 14 -7 27 -4 30 13 9 21
40 11 40 -6 0 -10 -4 -10 -10 0 -24 -20 -7 -21 18 0 15 -3 21 -6 15 -2 -7 -11
-13 -20 -13 -14 0 -13 11 4 58 3 6 1 12 -5 12 -5 0 -12 -7 -16 -15 -3 -8 -12
-12 -21 -9 -20 8 -19 21 3 27 16 4 16 5 0 6 -10 0 -18 5 -18 9 0 16 13 21 31
12 12 -7 20 -7 24 0 3 5 0 10 -8 10 -8 0 -25 9 -38 20 -26 21 -20 26 11 10 18
-9 18 -8 5 17 -8 14 -12 30 -9 35 3 4 0 8 -5 8 -6 0 -11 -7 -11 -15 0 -8 -6
-15 -13 -15 -8 0 -13 13 -13 35 0 30 3 34 21 30 18 -5 18 -5 2 5 -9 6 -22 8
-27 5 -6 -3 -10 2 -10 12 0 14 -8 18 -34 18 -19 0 -38 -3 -41 -7 -4 -4 -18 -3
-32 3 -28 10 -59 12 -50 2 4 -3 -1 -12 -11 -19 -15 -12 -14 -14 15 -20 32 -6
55 -44 27 -44 -8 0 -14 -6 -14 -13 0 -8 -8 -22 -19 -31 -10 -9 -21 -30 -25
-47 -3 -17 -12 -29 -21 -29 -19 0 -19 -24 0 -54 15 -22 13 -24 -39 -60 -30
-21 -57 -44 -60 -52 -3 -9 -10 -13 -14 -10 -5 3 -30 -16 -56 -41 -40 -39 -55
-47 -94 -51 -42 -3 -50 -1 -77 28 -16 17 -48 43 -70 57 -22 14 -44 32 -48 39
-13 22 -107 60 -107 44 0 -6 -4 -10 -10 -10 -5 0 -10 7 -10 15 0 10 -10 15
-28 15 -16 0 -32 8 -40 20 -7 11 -19 20 -27 20 -8 0 -15 3 -15 8 0 4 -10 13
-21 21 -18 11 -23 11 -30 -1 -7 -11 -9 -11 -9 1 0 7 -6 11 -15 7 -8 -3 -18 1
-22 8 -10 16 -63 30 -63 16 0 -5 3 -10 8 -10 4 0 8 -20 9 -45 1 -43 0 -45 -27
-45 -16 0 -32 -5 -36 -11 -4 -8 -9 -7 -16 2 -6 10 -7 7 -3 -9 6 -21 3 -22 -45
-22 -28 0 -49 -4 -46 -9 7 -11 -22 -23 -35 -15 -5 3 -9 1 -9 -3 0 -5 -18 -8
-41 -8 -24 0 -44 -6 -49 -15 -5 -8 -10 -108 -10 -222 l0 -208 1600 0 1600 0 0
571 c0 494 -2 572 -15 585 -19 19 -19 34 -1 34 10 0 13 16 13 68 -1 54 -5 70
-20 81 -15 11 -16 15 -6 22 11 6 11 11 1 21 -19 19 -14 30 9 17 17 -9 20 -8
17 2 -6 19 -66 50 -73 39 -4 -6 1 -13 9 -16 18 -7 22 -34 6 -34 -5 0 -10 4
-10 8 0 5 -11 14 -25 20 -26 12 -36 35 -10 26 22 -9 18 5 -7 25 l-21 18 21 5
c15 4 23 0 27 -13 10 -30 28 -23 20 9 -5 22 -4 25 6 15 7 -7 23 -13 36 -13
l23 0 -2 307 -3 307 -34 23 c-32 22 -33 23 -10 25 13 0 30 1 37 1 26 -1 12 42
-19 56 -16 7 -28 16 -25 18 3 3 1 14 -5 24 -8 15 -6 19 8 20 11 0 13 3 6 6
-16 6 -17 40 -1 45 12 4 -58 78 -74 78 -5 0 -6 -4 -3 -10 4 -6 -12 -9 -40 -8
-27 2 -45 7 -45 14 0 15 -26 25 -45 18 -8 -4 -15 -1 -15 5 0 6 -9 11 -20 11
-11 0 -20 -4 -20 -10z m208 -229 c11 0 12 3 5 6 -18 7 -16 23 2 23 8 0 15 -7
15 -16 0 -12 7 -15 25 -12 17 4 25 1 25 -8 0 -23 -78 -15 -95 9 -8 11 -11 25
-7 31 4 6 8 2 10 -11 2 -14 10 -23 20 -22z m22 -41 c0 -5 -7 -7 -15 -4 -8 4
-15 8 -15 10 0 2 7 4 15 4 8 0 15 -4 15 -10z m-120 -625 c0 -8 -4 -15 -9 -15
-13 0 -22 16 -14 24 11 11 23 6 23 -9z m54 -37 c6 -4 8 -9 5 -12 -11 -11 -42
21 -34 34 7 12 9 12 13 0 3 -8 10 -18 16 -22z m-4 -38 c0 -5 -2 -10 -4 -10 -3
0 -8 5 -11 10 -3 6 -1 10 4 10 6 0 11 -4 11 -10z m113 -122 c14 -29 24 -54 23
-56 -7 -6 -66 12 -66 20 0 6 7 8 15 4 20 -7 20 24 0 50 -17 22 -19 34 -6 34 5
0 21 -24 34 -52z m-453 -12 c0 -3 -4 -8 -10 -11 -5 -3 -10 -1 -10 4 0 6 5 11
10 11 6 0 10 -2 10 -4z m460 -66 c8 -5 12 -12 9 -15 -8 -8 -39 5 -39 16 0 11
11 11 30 -1z m-453 -16 c-3 -3 -12 -4 -19 -1 -8 3 -5 6 6 6 11 1 17 -2 13 -5z
m304 -10 c12 -14 11 -16 -5 -13 -11 2 -21 10 -24 17 -5 17 13 15 29 -4z m-304
-36 c-3 -8 -6 -5 -6 6 -1 11 2 17 5 13 3 -3 4 -12 1 -19z m260 16 c-3 -3 -12
-4 -19 -1 -8 3 -5 6 6 6 11 1 17 -2 13 -5z m-301 -35 c3 -5 -4 -9 -14 -9 -11
0 -22 6 -25 14 -4 10 0 12 14 9 11 -3 22 -9 25 -14z m280 -7 c-9 -8 -57 8 -51
18 3 6 16 5 30 -2 14 -6 23 -13 21 -16z m-62 -4 c11 -10 16 -21 12 -25 -4 -4
-10 -2 -14 4 -4 6 -16 12 -26 14 -11 2 -21 9 -23 15 -6 18 29 12 51 -8z m-104
2 c0 -6 11 -15 25 -22 28 -12 25 -29 -4 -21 -20 5 -48 53 -31 53 6 0 10 -5 10
-10z m-181 -9 c9 -6 10 -11 2 -15 -6 -4 -11 -2 -11 4 0 6 -4 9 -9 5 -5 -3 -12
-1 -16 5 -8 12 15 13 34 1z m161 -33 c0 -4 -12 -8 -26 -8 -23 0 -24 1 -10 16
9 8 14 21 10 27 -3 7 2 3 10 -7 9 -11 16 -23 16 -28z m-100 2 c0 -5 -7 -10
-16 -10 -8 0 -12 5 -9 10 3 6 10 10 16 10 5 0 9 -4 9 -10z m297 4 c-3 -3 -12
-4 -19 -1 -8 3 -5 6 6 6 11 1 17 -2 13 -5z m-264 -11 c2 -5 -2 -23 -9 -40 -14
-33 -39 -42 -78 -27 -28 11 -19 35 9 28 22 -5 24 -4 18 12 -6 17 -5 17 11 5
15 -13 18 -12 23 7 5 22 18 29 26 15z m197 -14 c0 -6 -4 -7 -10 -4 -5 3 -10
11 -10 16 0 6 5 7 10 4 6 -3 10 -11 10 -16z m-156 -15 c8 -20 -1 -34 -20 -34
-8 0 -14 8 -14 18 0 33 23 44 34 16z m186 6 c0 -5 -2 -10 -4 -10 -3 0 -8 5
-11 10 -3 6 -1 10 4 10 6 0 11 -4 11 -10z m-70 -11 c0 -5 -4 -8 -9 -4 -5 3
-16 -4 -24 -16 -13 -18 -18 -19 -39 -8 -23 13 -23 13 10 20 18 4 36 9 39 13
10 10 23 7 23 -5z m-414 -13 c11 -8 30 -12 46 -9 23 5 26 3 21 -16 -3 -11 -9
-21 -14 -21 -7 0 -76 43 -88 56 -11 10 17 3 35 -10z m601 -32 c24 -23 13 -24
-22 -2 -19 13 -35 27 -35 31 0 9 39 -10 57 -29z m-475 6 c-24 -23 -52 -26 -52
-7 0 21 10 27 44 27 l30 0 -22 -20z m196 -12 c15 -15 16 -32 2 -23 -5 3 -10 1
-10 -4 0 -6 5 -11 11 -11 5 0 8 -4 4 -10 -9 -15 -35 0 -35 21 0 10 -6 19 -12
19 -9 0 -8 4 2 10 19 13 24 12 38 -2z m182 2 c0 -5 -4 -10 -10 -10 -5 0 -10 5
-10 10 0 6 5 10 10 10 6 0 10 -4 10 -10z m55 -15 c17 -13 25 -24 18 -25 -6 0
-15 5 -18 10 -9 15 -25 2 -18 -15 7 -19 -11 -19 -27 0 -10 12 -10 15 4 15 19
0 21 11 4 28 -22 22 7 12 37 -13z m-515 -5 c22 -1 23 -2 7 -11 -13 -7 -22 -7
-31 0 -7 6 -16 8 -19 4 -4 -3 -7 2 -7 12 0 15 3 16 12 7 7 -7 23 -12 38 -12z
m346 -8 c-4 -3 -14 2 -24 12 -16 18 -16 18 6 6 13 -6 21 -14 18 -18z m-141 -2
c3 -5 1 -10 -4 -10 -6 0 -11 5 -11 10 0 6 2 10 4 10 3 0 8 -4 11 -10z m-369
-65 c2 -26 -10 -33 -21 -15 -4 6 -1 17 5 25 16 19 15 19 16 -10z m674 5 c0 -5
-4 -10 -10 -10 -5 0 -10 5 -10 10 0 6 5 10 10 10 6 0 10 -4 10 -10z m-317 -25
c-3 -9 -8 -14 -10 -11 -3 3 -2 9 2 15 9 16 15 13 8 -4z m42 -15 c-4 -6 -1 -17
5 -25 10 -12 9 -15 -8 -15 -27 0 -37 17 -22 35 14 17 35 20 25 5z m-71 -9 c3
-5 -1 -11 -9 -14 -9 -4 -12 -1 -8 9 6 16 10 17 17 5z m-190 -20 c3 -5 -2 -15
-12 -22 -15 -12 -16 -12 -5 2 7 9 10 19 6 22 -3 4 -4 7 0 7 3 0 8 -4 11 -9z
m-221 -18 c3 -5 1 -17 -4 -28 -4 -11 -8 -15 -8 -8 -1 6 -4 18 -7 27 -6 16 11
23 19 9z m77 -13 c0 -5 -4 -10 -10 -10 -5 0 -10 5 -10 10 0 6 5 10 10 10 6 0
10 -4 10 -10z m360 -10 c0 -11 -4 -20 -10 -20 -5 0 -10 9 -10 20 0 11 5 20 10
20 6 0 10 -9 10 -20z m100 10 c0 -5 -4 -10 -10 -10 -5 0 -10 5 -10 10 0 6 5
10 10 10 6 0 10 -4 10 -10z m-155 -10 c3 -5 -3 -10 -14 -10 -12 0 -21 5 -21
10 0 6 6 10 14 10 8 0 18 -4 21 -10z m-401 -28 c2 -4 -4 -8 -14 -8 -10 0 -16
4 -14 8 3 4 9 8 14 8 5 0 11 -4 14 -8z m421 -2 c-3 -5 -12 -10 -18 -10 -7 0
-6 4 3 10 19 12 23 12 15 0z m-1298 -16 c-3 -4 0 -13 8 -21 8 -8 15 -21 15
-28 0 -16 -38 -40 -48 -31 -3 3 0 6 8 6 10 0 10 3 -1 17 -13 15 -12 15 7 5 21
-11 21 -10 10 13 -6 14 -18 25 -26 26 -10 0 -8 3 5 9 25 11 30 12 22 4z m983
-4 c0 -5 -4 -10 -10 -10 -5 0 -10 5 -10 10 0 6 5 10 10 10 6 0 10 -4 10 -10z
m285 0 c3 -5 1 -10 -4 -10 -6 0 -11 5 -11 10 0 6 2 10 4 10 3 0 8 -4 11 -10z
m-533 -92 c-7 -7 -8 -17 -2 -29 8 -14 6 -16 -10 -12 -22 6 -27 38 -7 46 22 9
31 7 19 -5z m-703 -22 c9 -11 6 -12 -15 -8 -19 3 -22 7 -12 13 16 11 14 11 27
-5z m666 -32 c19 -15 19 -15 -9 -12 -16 2 -31 9 -34 16 -5 17 19 15 43 -4z
m-85 -74 c0 -5 -4 -10 -10 -10 -5 0 -10 5 -10 10 0 6 5 10 10 10 6 0 10 -4 10
-10z m-50 -30 c0 -5 -5 -10 -11 -10 -5 0 -7 5 -4 10 3 6 8 10 11 10 2 0 4 -4
4 -10z m10 -70 c0 -5 -4 -10 -9 -10 -6 0 -13 5 -16 10 -3 6 1 10 9 10 9 0 16
-4 16 -10z m-1832 -29 c11 -7 10 -9 -3 -14 -9 -4 -13 -3 -10 3 3 6 -1 10 -9
10 -9 0 -13 -6 -10 -13 3 -8 -2 -14 -11 -14 -18 0 -19 9 -3 25 14 14 28 15 46
3z m1480 -28 c6 -6 12 -17 12 -23 0 -7 7 -10 15 -6 18 6 20 -10 3 -20 -6 -4
-14 -2 -16 4 -2 7 -10 12 -18 12 -8 0 -11 6 -7 16 4 11 1 15 -12 12 -10 -2
-20 3 -23 10 -5 16 27 13 46 -5z m25 -80 c-7 -2 -19 -2 -25 0 -7 3 -2 5 12 5
14 0 19 -2 13 -5z"/>
<path d="M3120 2415 c0 -8 7 -15 16 -15 14 0 14 3 4 15 -7 8 -14 15 -16 15 -2
0 -4 -7 -4 -15z"/>
<path d="M3170 2411 c13 -26 29 -28 26 -3 -2 9 -11 19 -20 20 -15 3 -16 1 -6
-17z"/>
<path d="M1760 2400 c0 -5 5 -10 11 -10 5 0 7 5 4 10 -3 6 -8 10 -11 10 -2 0
-4 -4 -4 -10z"/>
<path d="M2851 2386 c2 -2 22 -6 44 -10 29 -5 36 -4 25 3 -13 10 -79 16 -69 7z"/>
<path d="M2520 2339 c0 -5 5 -7 10 -4 6 3 10 8 10 11 0 2 -4 4 -10 4 -5 0 -10
-5 -10 -11z"/>
<path d="M2840 2340 c0 -5 5 -10 11 -10 5 0 7 5 4 10 -3 6 -8 10 -11 10 -2 0
-4 -4 -4 -10z"/>
<path d="M3170 2331 c0 -5 7 -11 14 -14 10 -4 13 -1 9 9 -6 15 -23 19 -23 5z"/>
<path d="M2880 2326 c0 -9 39 -13 51 -5 10 6 4 9 -18 9 -18 0 -33 -2 -33 -4z"/>
<path d="M3010 2305 c7 -8 16 -15 21 -15 5 0 6 7 3 15 -4 8 -13 15 -21 15 -13
0 -13 -3 -3 -15z"/>
<path d="M3063 2300 c1 -11 5 -20 9 -20 4 0 12 9 18 20 9 17 8 20 -9 20 -14 0
-19 -6 -18 -20z"/>
<path d="M2878 2293 c7 -3 16 -2 19 1 4 3 -2 6 -13 5 -11 0 -14 -3 -6 -6z"/>
<path d="M2930 2285 c0 -3 9 -16 21 -28 15 -17 19 -18 14 -4 -5 11 -2 17 6 18
8 0 5 4 -6 9 -24 10 -35 12 -35 5z"/>
<path d="M2790 2259 c0 -5 5 -7 10 -4 6 3 10 8 10 11 0 2 -4 4 -10 4 -5 0 -10
-5 -10 -11z"/>
<path d="M2019 2223 c-13 -16 -12 -17 4 -4 9 7 17 15 17 17 0 8 -8 3 -21 -13z"/>
<path d="M3005 2189 c-19 -7 -19 -8 3 -8 12 -1 22 -6 22 -12 0 -5 5 -7 10 -4
27 17 -2 37 -35 24z"/>
<path d="M0 2032 c0 -158 0 -159 24 -170 23 -10 24 -9 20 20 -2 17 -9 35 -16
40 -12 7 -4 12 15 9 4 0 7 5 7 13 0 20 50 66 72 66 13 0 17 4 11 13 -4 6 -9
21 -10 31 -2 11 -10 27 -17 35 -8 9 -17 26 -20 37 -8 26 -33 49 -63 58 l-23 7
0 -159z"/>
<path d="M2120 2170 c0 -5 5 -10 11 -10 5 0 7 5 4 10 -3 6 -8 10 -11 10 -2 0
-4 -4 -4 -10z"/>
<path d="M2108 2004 c-9 -8 3 -44 14 -44 5 0 7 4 4 9 -4 5 -1 11 5 13 7 2 6 8
-3 16 -8 6 -17 9 -20 6z"/>
<path d="M2214 1995 c-5 -11 -11 -12 -25 -4 -11 5 -24 7 -29 4 -11 -7 -2 -35
12 -35 5 0 6 5 3 10 -3 6 1 10 9 10 9 0 16 -4 16 -10 0 -14 27 -13 36 2 5 7 3
8 -6 3 -10 -6 -12 -3 -8 13 7 25 0 30 -8 7z"/>
<path d="M2356 1967 c3 -10 9 -15 12 -12 3 3 0 11 -7 18 -10 9 -11 8 -5 -6z"/>
<path d="M2290 1953 c0 -10 4 -14 8 -8 4 6 11 13 16 18 5 4 2 7 -7 7 -10 0
-17 -8 -17 -17z"/>
<path d="M1365 1950 c-4 -6 5 -10 20 -10 17 0 28 -7 34 -22 10 -26 6 -38 -12
-38 -7 0 -6 4 3 10 12 7 11 10 -5 15 -11 4 -28 11 -38 16 -27 14 -72 -23 -92
-75 -16 -41 -16 -48 -1 -100 9 -31 22 -56 29 -56 31 0 140 88 162 131 12 22
11 31 -6 69 -11 24 -27 49 -37 56 -20 16 -48 18 -57 4z m-17 -79 c3 -8 -1 -12
-9 -9 -7 2 -15 10 -17 17 -3 8 1 12 9 9 7 -2 15 -10 17 -17z"/>
<path d="M2255 1950 c-3 -5 -2 -10 4 -10 5 0 13 5 16 10 3 6 2 10 -4 10 -5 0
-13 -4 -16 -10z"/>
<path d="M2557 1938 c-2 -7 -1 -22 4 -33 6 -16 8 -14 8 13 1 33 -4 41 -12 20z"/>
<path d="M2671 1804 c0 -11 3 -14 6 -6 3 7 2 16 -1 19 -3 4 -6 -2 -5 -13z"/>
<path d="M2350 1725 c0 -8 2 -15 4 -15 2 0 6 7 10 15 3 8 1 15 -4 15 -6 0 -10
-7 -10 -15z"/>
<path d="M2715 1710 c27 -12 35 -12 35 0 0 6 -12 10 -27 9 -25 0 -26 -1 -8 -9z"/>
<path d="M2460 1701 c0 -5 7 -12 16 -15 24 -9 27 -7 10 9 -17 17 -26 19 -26 6z"/>
<path d="M2636 1691 c-4 -6 -1 -11 8 -11 14 0 17 -5 16 -26 -1 -9 45 -42 52
-37 12 7 9 23 -3 23 -6 0 -24 14 -39 31 -18 21 -30 28 -34 20z"/>
<path d="M620 1680 c14 -4 19 -8 13 -9 -25 -2 -12 -20 20 -29 19 -5 45 -21 59
-35 15 -15 38 -29 52 -32 14 -3 37 -7 51 -10 31 -7 23 -25 -11 -25 -34 0 -144
-32 -144 -41 0 -16 -79 -30 -117 -21 -21 5 -48 10 -61 10 -19 1 -21 -2 -12
-14 10 -11 10 -17 0 -29 -18 -22 32 -69 66 -61 18 5 24 2 24 -10 0 -15 8 -16
60 -11 33 4 60 3 60 -1 0 -11 66 -42 89 -42 23 0 76 26 118 56 53 40 83 47
105 27 17 -15 21 -15 28 -3 20 32 3 90 -26 90 -11 0 -14 6 -10 16 4 11 2 15
-8 11 -8 -3 -31 3 -52 14 -21 10 -47 19 -59 19 -15 0 -17 2 -6 9 10 7 4 12
-22 22 -20 7 -34 16 -31 20 2 4 -5 10 -16 14 -11 3 -20 11 -20 16 0 5 -12 9
-26 9 -14 0 -23 4 -20 9 7 11 -72 41 -104 40 l-25 -1 25 -8z"/>
<path d="M0 1571 c0 -87 1 -89 34 -125 34 -36 73 -53 45 -20 -7 8 -14 31 -16
50 -3 29 0 37 17 41 15 4 18 9 10 18 -8 10 -4 20 15 41 15 16 22 30 16 32 -6
2 -11 10 -11 18 0 8 -7 14 -15 14 -8 0 -15 5 -15 10 0 6 -18 10 -40 10 l-40 0
0 -89z"/>
<path d="M2265 1640 c3 -5 12 -7 20 -3 21 7 19 13 -6 13 -11 0 -18 -4 -14 -10z"/>
<path d="M2325 1639 c-4 -6 -5 -12 -2 -15 2 -3 7 2 10 11 7 17 1 20 -8 4z"/>
<path d="M2090 1580 c0 -5 5 -10 10 -10 6 0 10 5 10 10 0 6 -4 10 -10 10 -5 0
-10 -4 -10 -10z"/>
<path d="M2150 1570 c-12 -7 -8 -11 18 -16 17 -4 32 -12 32 -20 0 -7 5 -16 12
-20 7 -4 8 -3 4 4 -4 7 -1 12 8 12 9 0 16 5 16 11 0 6 -7 9 -15 5 -8 -3 -15
-1 -15 4 0 6 -9 10 -19 10 -11 0 -21 4 -23 10 -2 6 -9 6 -18 0z"/>
<path d="M2361 1567 c3 -27 -2 -34 -23 -33 -13 1 -31 -2 -40 -6 -11 -5 -18 -5
-18 2 0 5 -5 10 -12 10 -9 0 -9 -3 0 -12 7 -7 12 -20 12 -29 0 -10 10 -19 25
-22 25 -4 25 -4 9 14 -21 23 -16 30 14 22 29 -7 31 -53 3 -60 -11 -3 -22 -12
-25 -20 -5 -12 -2 -13 11 -7 10 4 33 8 51 8 29 1 30 2 15 14 -16 12 -16 13 5
19 20 5 21 7 6 18 -10 7 -19 22 -21 35 -3 18 1 21 17 17 33 -8 33 10 0 27 -21
10 -30 11 -29 3z"/>
<path d="M2791 1554 c0 -11 3 -14 6 -6 3 7 2 16 -1 19 -3 4 -6 -2 -5 -13z"/>
<path d="M2818 1563 c7 -3 16 -2 19 1 4 3 -2 6 -13 5 -11 0 -14 -3 -6 -6z"/>
<path d="M2580 1510 c0 -5 5 -10 10 -10 6 0 10 5 10 10 0 6 -4 10 -10 10 -5 0
-10 -4 -10 -10z"/>
<path d="M2530 1500 c19 -13 30 -13 30 0 0 6 -10 10 -22 10 -19 0 -20 -2 -8
-10z"/>
<path d="M2230 1480 c0 -5 11 -12 25 -16 14 -3 25 -14 26 -23 0 -11 2 -12 6
-3 3 7 -3 22 -13 33 -18 20 -44 26 -44 9z"/>
<path d="M3160 1461 c0 -12 6 -21 15 -21 8 0 15 3 15 6 0 3 -7 12 -15 20 -13
14 -15 13 -15 -5z"/>
<path d="M2550 1462 c0 -7 12 -17 26 -22 34 -13 34 -13 34 10 0 18 -2 19 -20
8 -17 -11 -22 -10 -30 2 -7 10 -10 11 -10 2z"/>
<path d="M2416 1445 c-3 -8 -1 -15 4 -15 6 0 10 7 10 15 0 8 -2 15 -4 15 -2 0
-6 -7 -10 -15z"/>
<path d="M2477 1439 c7 -7 15 -10 18 -7 3 3 -2 9 -12 12 -14 6 -15 5 -6 -5z"/>
<path d="M2355 1410 c-3 -5 -1 -10 4 -10 6 0 11 5 11 10 0 6 -2 10 -4 10 -3 0
-8 -4 -11 -10z"/>
<path d="M2474 1391 c0 -8 -4 -16 -11 -16 -7 0 -18 -6 -24 -12 -10 -10 -9 -16
4 -31 9 -10 14 -23 10 -27 -5 -5 -1 -4 7 2 8 6 24 13 35 15 14 3 9 7 -17 12
-37 8 -53 26 -23 26 8 0 24 9 34 19 18 18 18 19 1 24 -11 3 -17 -1 -16 -12z"/>
<path d="M2390 1350 c0 -5 5 -10 10 -10 6 0 10 5 10 10 0 6 -4 10 -10 10 -5 0
-10 -4 -10 -10z"/>
<path d="M2491 1356 c2 -2 18 -6 34 -10 22 -5 26 -4 15 4 -14 9 -59 15 -49 6z"/>
<path d="M10 1326 c-8 -11 -11 -64 -9 -186 3 -148 6 -173 21 -190 10 -11 18
-26 18 -35 0 -8 5 -15 10 -15 6 0 10 -13 10 -28 0 -16 9 -37 20 -47 11 -10 18
-21 15 -25 -2 -4 11 -21 29 -39 29 -28 38 -31 79 -28 25 2 52 10 59 18 23 23
57 199 38 199 -5 0 -10 7 -10 15 0 9 -6 18 -14 21 -8 3 -13 11 -10 19 3 7 -2
19 -11 28 -9 10 -11 18 -5 22 6 4 8 11 5 16 -9 13 3 47 18 52 7 2 2 2 -11 0
-19 -3 -23 0 -17 16 8 26 -19 51 -58 52 -18 0 -26 3 -19 6 6 2 12 16 12 30 0
23 -3 25 -32 19 -24 -4 -29 -3 -18 4 12 8 10 10 -9 10 -23 0 -23 1 -8 18 21
23 21 27 1 46 -19 20 -88 21 -104 2z"/>
<path d="M1384 1308 c-15 -26 -67 -46 -104 -41 -46 7 -35 -4 21 -21 l44 -13
-55 -25 c-82 -39 -135 -50 -225 -48 -113 2 -148 1 -154 -6 -10 -9 23 -24 54
-24 17 0 55 -6 85 -14 30 -7 75 -13 100 -12 25 2 51 -2 58 -7 7 -5 16 -7 19
-3 4 4 1 12 -7 17 -11 8 -4 9 25 4 l40 -6 -25 21 -25 22 27 -6 c27 -6 49 8 26
17 -7 2 -1 8 15 12 15 4 32 16 38 28 8 14 13 16 19 7 5 -9 9 -9 14 -1 4 6 2
11 -3 11 -6 0 -11 5 -11 10 0 6 7 10 15 10 7 0 18 6 22 13 4 8 23 22 41 32 17
11 32 23 32 27 0 10 -3 10 -36 -2 -20 -8 -29 -8 -35 1 -5 8 -9 7 -15 -3z"/>
<path d="M2388 1313 c7 -3 16 -2 19 1 4 3 -2 6 -13 5 -11 0 -14 -3 -6 -6z"/>
<path d="M2420 1295 c0 -8 -8 -15 -19 -15 -10 0 -21 -9 -24 -20 -6 -23 8 -27
17 -5 3 8 12 15 21 15 8 0 15 2 15 4 0 2 3 11 6 20 3 9 1 16 -5 16 -6 0 -11
-7 -11 -15z"/>
<path d="M2515 1292 c-3 -10 -10 -10 -25 -2 -16 8 -20 8 -20 -3 0 -8 10 -14
23 -14 12 0 30 -3 40 -8 11 -5 23 -3 30 5 10 10 7 12 -11 7 -23 -5 -23 -5 -7
13 16 18 16 19 -4 17 -11 -1 -23 -7 -26 -15z"/>
<path d="M2471 1239 c18 -11 52 -11 45 0 -3 5 -17 9 -32 9 -18 0 -22 -3 -13
-9z"/>
<path d="M2420 1219 c0 -5 9 -9 19 -9 11 0 23 -4 26 -10 3 -5 17 -10 31 -10
13 0 24 -5 24 -11 0 -5 5 -7 10 -4 19 12 10 23 -25 29 -19 4 -35 11 -35 15 0
5 -11 9 -25 9 -14 0 -25 -4 -25 -9z"/>
<path d="M2380 1210 c0 -5 7 -10 16 -10 8 0 12 5 9 10 -3 6 -10 10 -16 10 -5
0 -9 -4 -9 -10z"/>
<path d="M2292 1196 c7 -8 15 -12 17 -10 2 2 13 -1 25 -7 17 -8 16 -6 -4 10
-30 24 -59 30 -38 7z"/>
<path d="M2425 1190 c4 -6 11 -8 16 -5 5 4 9 -1 9 -9 0 -18 -12 -20 -58 -7
-20 6 -30 6 -27 0 4 -5 13 -9 21 -9 8 0 13 -3 11 -7 -3 -5 10 -8 28 -9 19 0
32 3 29 7 -2 4 2 9 8 12 10 3 10 7 -1 20 -14 18 -46 24 -36 7z"/>
<path d="M1265 850 c3 -5 8 -10 11 -10 2 0 4 5 4 10 0 6 -5 10 -11 10 -5 0 -7
-4 -4 -10z"/>
<path d="M2076 847 c3 -10 9 -15 12 -12 3 3 0 11 -7 18 -10 9 -11 8 -5 -6z"/>
<path d="M2003 810 c-11 -16 -10 -18 2 -14 8 4 15 12 15 20 0 19 -3 18 -17 -6z"/>
<path d="M2068 788 c-7 -16 7 -45 14 -32 3 5 2 18 -2 28 -5 16 -8 17 -12 4z"/>
<path d="M1994 740 c1 -10 -7 -14 -24 -12 -18 2 -22 0 -13 -9 16 -16 43 -8 60
18 13 20 13 22 -5 20 -10 0 -19 -8 -18 -17z"/>
<path d="M1914 697 c-9 -21 -8 -23 17 -19 26 4 26 5 11 23 -9 10 -17 19 -17
19 0 0 -5 -10 -11 -23z"/>
<path d="M1657 453 c-3 -5 -1 -17 4 -28 6 -17 8 -17 8 -2 1 9 8 17 16 17 8 0
15 5 15 10 0 12 -37 14 -43 3z"/>
<path d="M902 428 c-7 -9 -10 -23 -6 -32 7 -18 10 -18 39 -6 16 7 17 9 3 9 -9
1 -18 11 -20 23 -3 19 -5 19 -16 6z"/>
</g>
</svg>
